# xmcd
#
# Track frame offsets:
#	150
#	14048
#	34230
#	45984
#	59672
#	73480
#	87202
#	101168
#	120658
#	135130
#	150307
#	172667
#	186493
#
# Disc length: 2660 seconds
#
# Revision: 0
# Processed by: cddbd v1.5.2PL0 Copyright (c) Steve Scherf et al.
# Submitted via: EasyCDDAExtractor 10.2.0.1
#
DISCID=ad0a620d
DTITLE=Freddie Johnson - The Big House On Gold Street
DYEAR=2007
DGENRE=Gospel
TTITLE0=Someday I'm Gonna Shine
TTITLE1=The Dream
TTITLE2=I Found A Real Love
TTITLE3=One Drop Of Blood
TTITLE4=Back To The Well
TTITLE5=Crosses
TTITLE6=When I Kneel
TTITLE7=More Than A Regular Joe
TTITLE8=He Went Through Hell
TTITLE9=Golden Rocking Chair
TTITLE10=God's Unchanging Hand
TTITLE11=The Big Day On Gold Street
TTITLE12=Judgment Day
EXTD=
EXTT0=
EXTT1=
EXTT2=
EXTT3=
EXTT4=
EXTT5=
EXTT6=
EXTT7=
EXTT8=
EXTT9=
EXTT10=
EXTT11=
EXTT12=
PLAYORDER=
